<svg xmlns="http://www.w3.org/2000/svg" xmlns:xlink="http://www.w3.org/1999/xlink" version="1.1" width="256" height="256" viewBox="0 0 256 256" xml:space="preserve">

<defs>
</defs>
<g style="stroke: none; stroke-width: 0; stroke-dasharray: none; stroke-linecap: butt; stroke-linejoin: miter; stroke-miterlimit: 10; fill: none; fill-rule: nonzero; opacity: 1;" transform="translate(1.4065934065934016 1.4065934065934016) scale(2.81 2.81)" >
	<path d="M 76.958 72.259 c -0.558 0 -1.116 -0.133 -1.629 -0.402 l -13.811 -7.261 l -13.811 7.261 c -1.179 0.62 -2.607 0.518 -3.686 -0.266 c -1.078 -0.783 -1.618 -2.11 -1.393 -3.424 l 2.637 -15.379 l -11.173 -10.89 c -0.954 -0.931 -1.297 -2.321 -0.886 -3.588 c 0.412 -1.268 1.507 -2.191 2.825 -2.383 l 15.441 -2.244 l 6.905 -13.992 c 0.59 -1.195 1.807 -1.951 3.139 -1.951 s 2.549 0.756 3.139 1.951 l 6.905 13.992 l 15.44 2.244 c 1.319 0.191 2.414 1.115 2.826 2.383 c 0.411 1.267 0.068 2.657 -0.886 3.588 L 77.77 52.788 l 2.638 15.379 c 0.226 1.313 -0.314 2.641 -1.392 3.423 C 78.405 72.033 77.684 72.259 76.958 72.259 z M 44.058 41.835 l 7.413 7.225 c 0.824 0.805 1.201 1.963 1.006 3.099 L 50.728 62.36 l 9.162 -4.816 c 1.02 -0.537 2.238 -0.537 3.258 0 l 9.162 4.816 l -1.75 -10.202 c -0.195 -1.136 0.182 -2.294 1.006 -3.099 l 7.413 -7.225 l -10.243 -1.488 c -1.141 -0.166 -2.126 -0.882 -2.636 -1.915 l -4.581 -9.282 l -4.581 9.282 c -0.51 1.033 -1.495 1.749 -2.636 1.915 L 44.058 41.835 z" style="stroke: none; stroke-width: 1; stroke-dasharray: none; stroke-linecap: butt; stroke-linejoin: miter; stroke-miterlimit: 10; fill: rgb(0,0,0); fill-rule: nonzero; opacity: 1;" transform=" matrix(1 0 0 1 0 0) " stroke-linecap="round" />
	<path d="M 26.121 48.5 H 3.5 C 1.567 48.5 0 46.933 0 45 s 1.567 -3.5 3.5 -3.5 h 22.621 c 1.933 0 3.5 1.567 3.5 3.5 S 28.054 48.5 26.121 48.5 z" style="stroke: none; stroke-width: 1; stroke-dasharray: none; stroke-linecap: butt; stroke-linejoin: miter; stroke-miterlimit: 10; fill: rgb(0,0,0); fill-rule: nonzero; opacity: 1;" transform=" matrix(1 0 0 1 0 0) " stroke-linecap="round" />
	<path d="M 40.544 29.986 H 3.5 c -1.933 0 -3.5 -1.567 -3.5 -3.5 c 0 -1.933 1.567 -3.5 3.5 -3.5 h 37.044 c 1.933 0 3.5 1.567 3.5 3.5 C 44.044 28.419 42.477 29.986 40.544 29.986 z" style="stroke: none; stroke-width: 1; stroke-dasharray: none; stroke-linecap: butt; stroke-linejoin: miter; stroke-miterlimit: 10; fill: rgb(0,0,0); fill-rule: nonzero; opacity: 1;" transform=" matrix(1 0 0 1 0 0) " stroke-linecap="round" />
	<path d="M 34.82 67.014 H 3.5 c -1.933 0 -3.5 -1.567 -3.5 -3.5 s 1.567 -3.5 3.5 -3.5 h 31.32 c 1.933 0 3.5 1.567 3.5 3.5 S 36.753 67.014 34.82 67.014 z" style="stroke: none; stroke-width: 1; stroke-dasharray: none; stroke-linecap: butt; stroke-linejoin: miter; stroke-miterlimit: 10; fill: rgb(0,0,0); fill-rule: nonzero; opacity: 1;" transform=" matrix(1 0 0 1 0 0) " stroke-linecap="round" />
</g>
</svg>